<svg width="52" height="40" viewBox="0 0 52 40" fill="none" xmlns="http://www.w3.org/2000/svg">
<path d="M21.0693 3.06316C20.6644 1.89197 20.2559 0.711122 20.2484 0.695661C20.0534 0.241488 19.6021 -0.0445454 19.1267 0.0057035C18.8259 0.030828 11.7074 0.668604 7.14629 4.48559C4.76171 6.77772 0 20.1787 0 31.765C0 31.9698 0.0501429 32.1689 0.148572 32.3467C3.43757 38.3572 12.4039 39.9304 14.4467 39.9981C14.4597 40 14.4709 40 14.482 40C14.8423 40 15.1803 39.8203 15.3957 39.5168L17.6057 36.4014C13.9546 35.8235 13.2953 35.0698 13.1411 34.9519C12.3166 34.3199 11.7074 33.4348 12.4466 32.3177C13.0149 31.4499 14.2071 31.1639 15.1209 31.6529C16.0569 32.107 18.5621 33.5681 26 33.5295C33.3859 33.5063 36.6284 31.8964 36.6749 31.8616C37.9154 31.2799 38.883 31.5195 39.4866 32.3815C40.2053 33.5546 39.6927 34.3489 38.8719 34.979C38.7177 35.0969 38.3444 35.4273 34.4221 36.3937L36.6043 39.5149C36.8179 39.8203 37.1577 39.9981 37.518 39.9981C37.531 39.9981 37.5421 39.9981 37.5533 39.9961C39.598 39.9285 48.5643 38.3553 51.8514 32.3448C51.9499 32.167 52 31.9679 52 31.763C52 20.1787 47.2383 6.77772 44.7943 4.43534C40.2926 0.670537 33.1741 0.0327606 32.8733 0.0057035C32.3979 -0.0368148 31.9466 0.24342 31.7516 0.695661C31.7441 0.711122 31.3467 1.9113 30.9623 3.06896C30.9623 3.06896 27.9333 2.60705 26 2.60705C24.0667 2.60705 21.0693 3.06316 21.0693 3.06316ZM18.5714 27.7315C16.5193 27.7315 14.8571 25.1553 14.8571 21.9742C14.8571 18.793 16.5193 16.2168 18.5714 16.2168C20.631 15.8979 22.2411 18.793 22.2857 21.9742C22.2857 25.1553 20.6236 27.7315 18.5714 27.7315ZM33.4286 27.7315C31.3764 27.7315 29.7143 25.1379 29.7143 21.9394C29.7143 18.7408 31.3764 16.1472 33.4286 16.1472C35.4807 16.1472 37.1429 18.7408 37.1429 21.9394C37.1429 25.1379 35.4807 27.7315 33.4286 27.7315Z" fill="#5662F6"/>
</svg>
