<svg width="44" height="40" viewBox="0 0 44 40" fill="none" xmlns="http://www.w3.org/2000/svg">
<path d="M43.1379 0.549883C42.3879 -0.0861188 41.2099 -0.177119 39.9919 0.311882H39.9899C38.7089 0.825884 3.72882 15.8299 2.30482 16.4429C2.04581 16.5329 -0.216192 17.3769 0.0168089 19.2569C0.22481 20.9519 2.04281 21.6539 2.26482 21.7349L11.1578 24.78C11.7478 26.744 13.9228 33.99 14.4039 35.538C14.7039 36.503 15.1929 37.771 16.0499 38.032C16.8019 38.322 17.5499 38.057 18.0339 37.677L23.4709 32.634L32.2479 39.479L32.4569 39.604C33.0529 39.868 33.6239 40 34.1689 40C34.5899 40 34.9939 39.921 35.3799 39.763C36.6949 39.223 37.2209 37.97 37.2759 37.828L43.8319 3.75089C44.2319 1.93089 43.6759 1.00488 43.1379 0.549883ZM19.0009 25.998L16.0009 33.998L13.0008 23.998L36.0009 6.9979L19.0009 25.998Z" fill="#1B92CD"/>
</svg>
