<svg width="40" height="40" viewBox="0 0 40 40" fill="none" xmlns="http://www.w3.org/2000/svg">
<path d="M36.3636 0H3.63636C1.62727 0 0 1.62727 0 3.63636V36.3636C0 38.3727 1.62727 40 3.63636 40H36.3636C38.3727 40 40 38.3727 40 36.3636V3.63636C40 1.62727 38.3727 0 36.3636 0ZM31.5655 27.2127L28.1691 27.26C28.1691 27.26 27.4364 27.4036 26.4782 26.7418C25.2073 25.8691 24.0091 23.5982 23.0745 23.8927C22.1273 24.1945 22.1564 26.2382 22.1564 26.2382C22.1564 26.2382 22.1636 26.5982 21.9473 26.8327C21.7127 27.0855 21.2527 27.06 21.2527 27.06H19.7309C19.7309 27.06 16.3745 27.3382 13.4164 24.2545C10.1945 20.8927 7.34727 14.2582 7.34727 14.2582C7.34727 14.2582 7.18 13.84 7.35818 13.6255C7.56 13.3891 8.10364 13.3818 8.10364 13.3818L11.74 13.3636C11.74 13.3636 12.0818 13.4236 12.3291 13.6055C12.5309 13.7545 12.6455 14.0345 12.6455 14.0345C12.6455 14.0345 13.2327 15.5236 14.0127 16.8727C15.5327 19.5018 16.2382 20.0782 16.7545 19.7964C17.5073 19.3855 17.2818 16.08 17.2818 16.08C17.2818 16.08 17.2964 14.88 16.9036 14.3455C16.5982 13.9291 16.0236 13.8055 15.7727 13.7745C15.5673 13.7473 15.9018 13.2709 16.3382 13.0564C16.9927 12.7364 18.1491 12.7182 19.5145 12.7309C20.5782 12.7418 20.8855 12.8073 21.3 12.9091C22.5545 13.2127 22.1291 14.3836 22.1291 17.1927C22.1291 18.0927 21.9673 19.3582 22.6145 19.7745C22.8945 19.9545 23.5764 19.8018 25.2764 16.9036C26.0855 15.5291 26.6909 13.9145 26.6909 13.9145C26.6909 13.9145 26.8236 13.6273 27.0291 13.5036C27.24 13.3764 27.5236 13.4164 27.5236 13.4164L31.3509 13.3927C31.3509 13.3927 32.5 13.2545 32.6873 13.7764C32.8836 14.3218 32.2582 15.5964 30.6945 17.6818C28.1273 21.1073 27.8418 20.7891 29.9745 22.7709C32.0109 24.6636 32.4309 25.5836 32.5018 25.7C33.3436 27.1018 31.5655 27.2127 31.5655 27.2127Z" fill="#0077FF"/>
</svg>
